<?xml version="1.0" encoding="UTF-8" standalone="no"?>
<!DOCTYPE svg PUBLIC "-//W3C//DTD SVG 1.1//EN"
 "http://www.w3.org/Graphics/SVG/1.1/DTD/svg11.dtd">
<!-- Generated by graphviz version 11.0.0 (20240428.1522)
 -->
<!-- Title: mygraph Pages: 1 -->
<svg width="353pt" height="260pt"
 viewBox="0.00 0.00 353.38 260.00" xmlns="http://www.w3.org/2000/svg" xmlns:xlink="http://www.w3.org/1999/xlink">
<g id="graph0" class="graph" transform="scale(1 1) rotate(0) translate(4 256)">
<title>mygraph</title>
<polygon fill="white" stroke="none" points="-4,4 -4,-256 349.38,-256 349.38,4 -4,4"/>
<!-- align -->
<g id="node1" class="node">
<title>align</title>
<g id="a_node1"><a xlink:href="demos/align/1_basic/README.md" xlink:title="Align">
<polygon fill="none" stroke="black" points="161.38,-180 107.38,-180 107.38,-144 161.38,-144 161.38,-180"/>
<text text-anchor="middle" x="134.38" y="-156.2" font-family="Helvetica,Arial,sans-serif" font-size="14.00">Align</text>
</a>
</g>
</g>
<!-- Window -->
<g id="node3" class="node">
<title>Window</title>
<polygon fill="none" stroke="black" points="64.75,-108 0,-108 0,-72 64.75,-72 64.75,-108"/>
<text text-anchor="middle" x="32.38" y="-84.2" font-family="Helvetica,Arial,sans-serif" font-size="14.00">Window</text>
</g>
<!-- align&#45;&gt;Window -->
<g id="edge2" class="edge">
<title>align&#45;&gt;Window</title>
<path fill="none" stroke="black" d="M108.9,-143.52C96.15,-134.76 80.52,-124.04 66.73,-114.58"/>
<polygon fill="black" stroke="black" points="69,-111.89 58.77,-109.12 65.04,-117.66 69,-111.89"/>
</g>
<!-- Morph/window -->
<g id="node4" class="node">
<title>Morph/window</title>
<polygon fill="none" stroke="black" points="186.25,-108 82.5,-108 82.5,-72 186.25,-72 186.25,-108"/>
<text text-anchor="middle" x="134.38" y="-84.2" font-family="Helvetica,Arial,sans-serif" font-size="14.00">Morph/window</text>
</g>
<!-- align&#45;&gt;Morph/window -->
<g id="edge3" class="edge">
<title>align&#45;&gt;Morph/window</title>
<path fill="none" stroke="black" d="M134.38,-143.7C134.38,-136.41 134.38,-127.73 134.38,-119.54"/>
<polygon fill="black" stroke="black" points="137.88,-119.62 134.38,-109.62 130.88,-119.62 137.88,-119.62"/>
</g>
<!-- Features -->
<g id="node5" class="node">
<title>Features</title>
<polygon fill="none" stroke="black" points="274,-108 204.75,-108 204.75,-72 274,-72 274,-108"/>
<text text-anchor="middle" x="239.38" y="-84.2" font-family="Helvetica,Arial,sans-serif" font-size="14.00">Features</text>
</g>
<!-- align&#45;&gt;Features -->
<g id="edge4" class="edge">
<title>align&#45;&gt;Features</title>
<path fill="none" stroke="black" d="M160.6,-143.52C173.73,-134.76 189.81,-124.04 204.01,-114.58"/>
<polygon fill="black" stroke="black" points="205.85,-117.56 212.22,-109.1 201.96,-111.73 205.85,-117.56"/>
</g>
<!-- Original face photos -->
<g id="node2" class="node">
<title>Original face photos</title>
<polygon fill="none" stroke="black" points="202.75,-252 66,-252 66,-216 202.75,-216 202.75,-252"/>
<text text-anchor="middle" x="134.38" y="-228.2" font-family="Helvetica,Arial,sans-serif" font-size="14.00">Original face photos</text>
</g>
<!-- Original face photos&#45;&gt;align -->
<g id="edge1" class="edge">
<title>Original face photos&#45;&gt;align</title>
<path fill="none" stroke="black" d="M134.38,-215.7C134.38,-208.41 134.38,-199.73 134.38,-191.54"/>
<polygon fill="black" stroke="black" points="137.88,-191.62 134.38,-181.62 130.88,-191.62 137.88,-191.62"/>
</g>
<!-- Thatcher -->
<g id="node6" class="node">
<title>Thatcher</title>
<polygon fill="none" stroke="black" points="187,-36 117.75,-36 117.75,0 187,0 187,-36"/>
<text text-anchor="middle" x="152.38" y="-12.2" font-family="Helvetica,Arial,sans-serif" font-size="14.00">Thatcher</text>
</g>
<!-- Features&#45;&gt;Thatcher -->
<g id="edge5" class="edge">
<title>Features&#45;&gt;Thatcher</title>
<path fill="none" stroke="black" d="M217.87,-71.7C207.31,-63.2 194.4,-52.81 182.84,-43.51"/>
<polygon fill="black" stroke="black" points="185.1,-40.84 175.11,-37.3 180.71,-46.29 185.1,-40.84"/>
</g>
<!-- Chimera -->
<g id="node7" class="node">
<title>Chimera</title>
<polygon fill="none" stroke="black" points="273.25,-36 205.5,-36 205.5,0 273.25,0 273.25,-36"/>
<text text-anchor="middle" x="239.38" y="-12.2" font-family="Helvetica,Arial,sans-serif" font-size="14.00">Chimera</text>
</g>
<!-- Features&#45;&gt;Chimera -->
<g id="edge6" class="edge">
<title>Features&#45;&gt;Chimera</title>
<path fill="none" stroke="black" d="M239.38,-71.7C239.38,-64.41 239.38,-55.73 239.38,-47.54"/>
<polygon fill="black" stroke="black" points="242.88,-47.62 239.38,-37.62 235.88,-47.62 242.88,-47.62"/>
</g>
<!-- Other -->
<g id="node8" class="node">
<title>Other</title>
<polygon fill="none" stroke="black" points="345.38,-36 291.38,-36 291.38,0 345.38,0 345.38,-36"/>
<text text-anchor="middle" x="318.38" y="-12.2" font-family="Helvetica,Arial,sans-serif" font-size="14.00">Other</text>
</g>
<!-- Features&#45;&gt;Other -->
<g id="edge7" class="edge">
<title>Features&#45;&gt;Other</title>
<path fill="none" stroke="black" d="M258.9,-71.7C268.4,-63.28 279.98,-53.02 290.4,-43.79"/>
<polygon fill="black" stroke="black" points="292.5,-46.6 297.66,-37.35 287.86,-41.36 292.5,-46.6"/>
</g>
</g>
</svg>
